<svg xmlns="http://www.w3.org/2000/svg" width="1440" height="900" viewBox="0 0 1440 900" role="img" aria-label="proxy-xray UI variant 1 executive overview">
  <defs>
    <style>
      .bg{fill:#eef3f7}.panel{fill:#fff;stroke:#d7e0e8;stroke-width:1.5}.soft{fill:#f7f9fb;stroke:#d7e0e8;stroke-width:1.5}.text{fill:#13202d;font-family:Inter,ui-sans-serif,system-ui,sans-serif}.muted{fill:#667789}.label{fill:#667789;font:700 16px Inter,ui-sans-serif}.title{font:800 34px Inter,ui-sans-serif}.h2{font:800 24px Inter,ui-sans-serif}.h3{font:800 20px Inter,ui-sans-serif}.value{font:850 38px Inter,ui-sans-serif}.small{font:500 16px Inter,ui-sans-serif}.tiny{font:700 13px Inter,ui-sans-serif}.ok{fill:#168052}.okSoft{fill:#e8f7ef;stroke:#b8e2ca}.blue{fill:#2563a7}.blueSoft{fill:#e9f2ff;stroke:#c6dcf6}.amber{fill:#a86400}.amberSoft{fill:#fff4dc;stroke:#efd08f}.line{stroke:#d7e0e8;stroke-width:1.5}.shadow{filter:url(#shadow)}
    </style>
    <filter id="shadow" x="-10%" y="-10%" width="120%" height="120%">
      <feDropShadow dx="0" dy="14" stdDeviation="14" flood-color="#1c2c3c" flood-opacity=".09"/>
    </filter>
  </defs>
  <rect class="bg" width="1440" height="900"/>
  <rect x="38" y="34" width="54" height="54" rx="8" fill="#111b27"/>
  <text x="53" y="69" class="text" fill="#fff" font-size="24" font-weight="850">XR</text>
  <text x="112" y="61" class="text title">proxy-xray status</text>
  <text x="114" y="88" class="text muted small">Europe/Moscow · refreshed 13:42:12 · live update 15s</text>
  <g transform="translate(1130 42)">
    <rect class="soft" x="0" y="0" width="44" height="44" rx="8"/><text x="17" y="28" class="text tiny">R</text>
    <rect class="soft" x="58" y="0" width="44" height="44" rx="8"/><text x="73" y="28" class="text tiny">V5</text>
    <rect class="soft" x="116" y="0" width="44" height="44" rx="8"/><text x="132" y="28" class="text tiny">J</text>
    <rect class="soft" x="174" y="0" width="44" height="44" rx="8"/><text x="190" y="28" class="text tiny">D</text>
  </g>

  <rect class="panel shadow" x="38" y="122" width="1364" height="220" rx="8"/>
  <circle cx="152" cy="232" r="66" fill="none" stroke="#dce5ec" stroke-width="16"/>
  <path d="M152 166a66 66 0 1 1-63 86" fill="none" stroke="#168052" stroke-width="16" stroke-linecap="round"/>
  <text x="136" y="228" class="text value">11</text>
  <text x="129" y="256" class="text muted tiny">OK</text>
  <text x="250" y="204" class="text h2">Gateway is healthy</text>
  <text x="250" y="236" class="text muted small">Active VLESS path is serving traffic. Split DNS, direct RU routing and proxy checks are tracked separately.</text>
  <g transform="translate(250 266)">
    <rect class="soft" x="0" y="0" width="170" height="62" rx="8"/><text x="16" y="24" class="label">CANDIDATES</text><text x="16" y="51" class="text h2">63</text>
    <rect class="soft" x="184" y="0" width="170" height="62" rx="8"/><text x="200" y="24" class="label">TESTED LIVE</text><text x="200" y="51" class="text h2">43</text>
    <rect class="soft" x="368" y="0" width="190" height="62" rx="8"/><text x="384" y="24" class="label">THROUGHPUT</text><text x="384" y="51" class="text h2">31.8 Mbps</text>
    <rect class="soft" x="572" y="0" width="170" height="62" rx="8"/><text x="588" y="24" class="label">NEXT TEST</text><text x="588" y="51" class="text h2">13:44:33</text>
    <rect class="soft" x="756" y="0" width="170" height="62" rx="8"/><text x="772" y="24" class="label">FAILOVER</text><text x="772" y="51" class="text h2">idle</text>
  </g>

  <rect class="panel shadow" x="38" y="366" width="656" height="456" rx="8"/>
  <text x="68" y="410" class="text h2">Health indicators</text>
  <g transform="translate(68 438)">
    <rect class="okSoft" x="0" y="0" width="282" height="78" rx="8"/><rect x="0" y="0" width="6" height="78" rx="3" fill="#168052"/><text x="20" y="31" class="text h3">SOCKS proxy</text><text x="20" y="58" class="text muted small">generate_204 · 0.162s</text><text x="230" y="31" class="text ok tiny">OK</text>
    <rect class="okSoft" x="302" y="0" width="282" height="78" rx="8"/><rect x="302" y="0" width="6" height="78" rx="3" fill="#168052"/><text x="322" y="31" class="text h3">HTTP proxy</text><text x="322" y="58" class="text muted small">HTTP 204 · 0.121s</text><text x="532" y="31" class="text ok tiny">OK</text>
    <rect class="okSoft" x="0" y="94" width="282" height="78" rx="8"/><rect x="0" y="94" width="6" height="78" rx="3" fill="#168052"/><text x="20" y="125" class="text h3">RU DNS</text><text x="20" y="152" class="text muted small">yandex.ru · direct</text><text x="230" y="125" class="text ok tiny">OK</text>
    <rect class="okSoft" x="302" y="94" width="282" height="78" rx="8"/><rect x="302" y="94" width="6" height="78" rx="3" fill="#168052"/><text x="322" y="125" class="text h3">Global DNS</text><text x="322" y="152" class="text muted small">google.com · global</text><text x="532" y="125" class="text ok tiny">OK</text>
  </g>
  <rect class="soft" x="68" y="646" width="584" height="132" rx="8"/>
  <text x="92" y="684" class="text h3">Routing and assets</text>
  <text x="92" y="714" class="text muted small">Geo assets ok · subscription via proxy · direct RU enabled</text>
  <text x="92" y="746" class="text muted small">A calm dashboard for quick status checks.</text>

  <rect class="panel shadow" x="718" y="366" width="684" height="456" rx="8"/>
  <text x="748" y="410" class="text h2">Current connection</text>
  <text x="748" y="456" class="text value">proxy-sub-0</text>
  <text x="748" y="486" class="text muted small">spain-edge.example.net:443 · tcp / reality</text>
  <g transform="translate(748 516)">
    <rect class="okSoft" x="0" y="0" width="92" height="30" rx="15"/><text x="18" y="21" class="text ok tiny">running</text>
    <rect class="blueSoft" x="104" y="0" width="150" height="30" rx="15"/><text x="122" y="21" class="text blue tiny">balancer leastPing</text>
    <rect class="okSoft" x="266" y="0" width="120" height="30" rx="15"/><text x="284" y="21" class="text ok tiny">hot ready</text>
  </g>
  <g transform="translate(748 570)">
    <rect class="soft" x="0" y="0" width="296" height="86" rx="8"/><text x="18" y="30" class="label">SCORE</text><text x="18" y="62" class="text h2">1352.469</text>
    <rect class="soft" x="314" y="0" width="296" height="86" rx="8"/><text x="332" y="30" class="label">LATENCY</text><text x="332" y="62" class="text h2">0.121s</text>
    <rect class="soft" x="0" y="104" width="296" height="86" rx="8"/><text x="18" y="134" class="label">HOT STANDBY</text><text x="18" y="166" class="text h2">proxy-extra-0</text>
    <rect class="soft" x="314" y="104" width="296" height="86" rx="8"/><text x="332" y="134" class="label">SWITCH GUARD</text><text x="332" y="166" class="text h2">0s</text>
  </g>
</svg>
